HIERARCHY
ROOT hip
{
  OFFSET 0.00112043 5.09927 -9.65472
  CHANNELS 6 Xposition Yposition Zposition Zrotation Xrotation Yrotation
  JOINT abdomen
  {
    OFFSET 0 -1.186 -1.5018
    CHANNELS 3 Zrotation Xrotation Yrotation
    JOINT abdomen2
    {
      OFFSET 0 9.964 0.2134
      CHANNELS 3 Zrotation Xrotation Yrotation
      JOINT chest
      {
        OFFSET 0 13.134 -3.2573
        CHANNELS 3 Zrotation Xrotation Yrotation
        JOINT neck
        {
          OFFSET 0 20.686 -1.6905
          CHANNELS 3 Zrotation Xrotation Yrotation
          JOINT head
          {
            OFFSET 0 7.238 -0.1237
            CHANNELS 3 Zrotation Xrotation Yrotation
            End Site
            {
              OFFSET 0 0 0
            }
          }
        }
        JOINT lCollar
        {
          OFFSET 1.7069 20.075 5.0056
          CHANNELS 3 Zrotation Xrotation Yrotation
          JOINT lShldr
          {
            OFFSET 13.6458 -0.047 -4.849
            CHANNELS 3 Zrotation Xrotation Yrotation
            JOINT lForeArm
            {
              OFFSET 28.3255 -0.9759 2.2888
              CHANNELS 3 Zrotation Xrotation Yrotation
              JOINT lHand
              {
                OFFSET 22.1583 -0.53 10.8316
                CHANNELS 3 Zrotation Xrotation Yrotation
                JOINT lThumb1
                {
                  OFFSET 0.786 0.112 2.5817
                  CHANNELS 3 Zrotation Xrotation Yrotation
                  JOINT lThumb2
                  {
                    OFFSET 0.3601 -0.878 4.2331
                    CHANNELS 3 Zrotation Xrotation Yrotation
                    JOINT lThumb2_End
                    {
                      OFFSET 1.8127 -1.216 2.2227
                      CHANNELS 3 Zrotation Xrotation Yrotation
                      End Site
                      {
                        OFFSET 0.0181 -0.0122 0.0222
                      }
                    }
                  }
                }
                JOINT lCarpal1
                {
                  OFFSET 0.9571 1.114 1.7695
                  CHANNELS 3 Zrotation Xrotation Yrotation
                  JOINT lIndex1
                  {
                    OFFSET 4.1246 0.487 4.1451
                    CHANNELS 3 Zrotation Xrotation Yrotation
                    JOINT lIndex2
                    {
                      OFFSET 3.4052 -1.454 2.7682
                      CHANNELS 3 Zrotation Xrotation Yrotation
                      JOINT lIndex2_End
                      {
                        OFFSET 1.4531 -1.795 1.2713
                        CHANNELS 3 Zrotation Xrotation Yrotation
                        End Site
                        {
                          OFFSET 0.0145 -0.0179 0.0127
                        }
                      }
                    }
                  }
                  JOINT lMid1
                  {
                    OFFSET 5.6954 0.21 2.1184
                    CHANNELS 3 Zrotation Xrotation Yrotation
                    JOINT lMid2
                    {
                      OFFSET 3.9766 -1.54 2.3863
                      CHANNELS 3 Zrotation Xrotation Yrotation
                      JOINT lMid2_End
                      {
                        OFFSET 1.4042 -1.926 1.125
                        CHANNELS 3 Zrotation Xrotation Yrotation
                        End Site
                        {
                          OFFSET 0.014 -0.0193 0.0113
                        }
                      }
                    }
                  }
                }
                JOINT lCarpal2
                {
                  OFFSET 2.0956 0.66 -0.3894
                  CHANNELS 3 Zrotation Xrotation Yrotation
                  JOINT lRing1
                  {
                    OFFSET 5.0395 -0.09 2.4971
                    CHANNELS 3 Zrotation Xrotation Yrotation
                    JOINT lRing2
                    {
                      OFFSET 3.7921 -1.552 1.4806
                      CHANNELS 3 Zrotation Xrotation Yrotation
                      JOINT lRing2_End
                      {
                        OFFSET 1.4655 -1.808 0.9609
                        CHANNELS 3 Zrotation Xrotation Yrotation
                        End Site
                        {
                          OFFSET 0.0147 -0.0181 0.0096
                        }
                      }
                    }
                  }
                  JOINT lPinky1
                  {
                    OFFSET 4.9141 -1.269 0.3591
                    CHANNELS 3 Zrotation Xrotation Yrotation
                    JOINT lPinky2
                    {
                      OFFSET 3.1477 -1.685 0.8462
                      CHANNELS 3 Zrotation Xrotation Yrotation
                      JOINT lPinky2_End
                      {
                        OFFSET 0.8055 -1.585 0.7955
                        CHANNELS 3 Zrotation Xrotation Yrotation
                        End Site
                        {
                          OFFSET 0.0081 -0.0158 0.008
                        }
                      }
                    }
                  }
                }
              }
            }
          }
        }
        JOINT rCollar
        {
          OFFSET -1.7069 20.075 5.0056
          CHANNELS 3 Zrotation Xrotation Yrotation
          JOINT rShldr
          {
            OFFSET -13.6458 -0.047 -4.849
            CHANNELS 3 Zrotation Xrotation Yrotation
            JOINT rForeArm
            {
              OFFSET -28.3255 -0.9759 2.2888
              CHANNELS 3 Zrotation Xrotation Yrotation
              JOINT rHand
              {
                OFFSET -22.1583 -0.53 10.8316
                CHANNELS 3 Zrotation Xrotation Yrotation
                JOINT rThumb1
                {
                  OFFSET -0.786 0.112 2.5817
                  CHANNELS 3 Zrotation Xrotation Yrotation
                  JOINT rThumb2
                  {
                    OFFSET -0.3601 -0.878 4.2331
                    CHANNELS 3 Zrotation Xrotation Yrotation
                    JOINT rThumb2_End
                    {
                      OFFSET -1.8127 -1.216 2.2227
                      CHANNELS 3 Zrotation Xrotation Yrotation
                      End Site
                      {
                        OFFSET -0.0181 -0.0122 0.0222
                      }
                    }
                  }
                }
                JOINT rCarpal1
                {
                  OFFSET -0.9571 1.114 1.7695
                  CHANNELS 3 Zrotation Xrotation Yrotation
                  JOINT rIndex1
                  {
                    OFFSET -4.1246 0.487 4.1451
                    CHANNELS 3 Zrotation Xrotation Yrotation
                    JOINT rIndex2
                    {
                      OFFSET -3.4052 -1.454 2.7682
                      CHANNELS 3 Zrotation Xrotation Yrotation
                      JOINT rIndex2_End
                      {
                        OFFSET -1.4531 -1.795 1.2713
                        CHANNELS 3 Zrotation Xrotation Yrotation
                        End Site
                        {
                          OFFSET -0.0145 -0.018 0.0127
                        }
                      }
                    }
                  }
                  JOINT rMid1
                  {
                    OFFSET -5.6954 0.21 2.1184
                    CHANNELS 3 Zrotation Xrotation Yrotation
                    JOINT rMid2
                    {
                      OFFSET -3.9766 -1.54 2.3863
                      CHANNELS 3 Zrotation Xrotation Yrotation
                      JOINT rMid2_End
                      {
                        OFFSET -1.4042 -1.926 1.125
                        CHANNELS 3 Zrotation Xrotation Yrotation
                        End Site
                        {
                          OFFSET -0.014 -0.0193 0.0113
                        }
                      }
                    }
                  }
                }
                JOINT rCarpal2
                {
                  OFFSET -2.0956 0.66 -0.3894
                  CHANNELS 3 Zrotation Xrotation Yrotation
                  JOINT rRing1
                  {
                    OFFSET -5.0395 -0.09 2.4971
                    CHANNELS 3 Zrotation Xrotation Yrotation
                    JOINT rRing2
                    {
                      OFFSET -3.7921 -1.552 1.4806
                      CHANNELS 3 Zrotation Xrotation Yrotation
                      JOINT rRing2_End
                      {
                        OFFSET -1.4655 -1.808 0.9609
                        CHANNELS 3 Zrotation Xrotation Yrotation
                        End Site
                        {
                          OFFSET -0.0147 -0.0181 0.0096
                        }
                      }
                    }
                  }
                  JOINT rPinky1
                  {
                    OFFSET -4.9141 -1.269 0.3592
                    CHANNELS 3 Zrotation Xrotation Yrotation
                    JOINT rPinky2
                    {
                      OFFSET -3.1477 -1.685 0.8462
                      CHANNELS 3 Zrotation Xrotation Yrotation
                      JOINT rPinky2_End
                      {
                        OFFSET -0.8055 -1.585 0.7955
                        CHANNELS 3 Zrotation Xrotation Yrotation
                        End Site
                        {
                          OFFSET -0.0081 -0.0158 0.008
                        }
                      }
                    }
                  }
                }
              }
            }
          }
        }
      }
    }
  }
  JOINT lThigh
  {
    OFFSET 8.367 -8.2066 0.5982
    CHANNELS 3 Zrotation Xrotation Yrotation
    JOINT lShin
    {
      OFFSET 2.1923 -43.463 -0.4932
      CHANNELS 3 Zrotation Xrotation Yrotation
      JOINT lFoot
      {
        OFFSET 0.7333 -45.8593 -2.6451
        CHANNELS 3 Zrotation Xrotation Yrotation
        End Site
        {
          OFFSET 2.6618 -4.2699 12.3931
        }
      }
    }
  }
  JOINT rThigh
  {
    OFFSET -8.367 -8.2066 0.5982
    CHANNELS 3 Zrotation Xrotation Yrotation
    JOINT rShin
    {
      OFFSET -2.1923 -43.463 -0.4931
      CHANNELS 3 Zrotation Xrotation Yrotation
      JOINT rFoot
      {
        OFFSET -0.7333 -45.8593 -2.6451
        CHANNELS 3 Zrotation Xrotation Yrotation
        End Site
        {
          OFFSET -2.6618 -4.2699 12.3931
        }
      }
    }
  }
}
MOTION
Frames:	4
Frame Time:	0.0333333
8.26404 6.75969 10.6857 -90 0 -0 2.37181 2.40524 -7.36036 5.03849 4.48434 -14.8312 5.0385 4.48434 -14.8312 24.2841 -1.82536 0.820811 8.57229 3.43251 0.0407913 -4.91105 -11.9596 24.6584 -61.9627 14.2949 -37.2358 -16.3873 -0.268616 21.6312 -8.82781e-032 3.18055e-015 1.59028e-015 -9.63504e-008 -9.6845e-007 8.91994e-007 1.88861e-006 -2.15519e-006 2.25388e-008 -9.63505e-008 -9.68449e-007 8.91994e-007 1.59028e-015 0 1.59028e-015 -9.63504e-008 -9.6845e-007 8.91994e-007 1.88861e-006 -2.15519e-006 2.25388e-008 -9.63505e-008 -9.68449e-007 8.91994e-007 -9.63504e-008 -9.6845e-007 8.91994e-007 1.88861e-006 -2.15519e-006 2.25388e-008 -9.63505e-008 -9.68449e-007 8.91994e-007 1.59028e-015 0 1.59028e-015 -9.63504e-008 -9.6845e-007 8.91994e-007 1.88861e-006 -2.15519e-006 2.25388e-008 -9.63505e-008 -9.68449e-007 8.91994e-007 -9.63504e-008 -9.6845e-007 8.91994e-007 1.88861e-006 -2.15519e-006 2.25388e-008 -9.63505e-008 -9.68449e-007 8.91994e-007 -96.556 -71.5414 -147.051 -15.1148 -11.6561 -20.71 30.5919 30.0615 -20.8019 -24.1557 50.6399 -17.4657 9.10368e-032 7.95139e-016 -6.55989e-015 3.14491e-031 -4.77083e-015 3.77691e-015 -1.10348e-031 -3.97569e-015 -1.59028e-015 3.18055e-015 2.38542e-015 -3.18055e-015 -3.18055e-015 -1.98785e-015 2.78299e-015 -3.18055e-015 1.19271e-015 -3.97569e-015 3.18055e-015 -2.78299e-015 6.16232e-015 -3.18055e-015 -1.98785e-015 2.78299e-015 -3.18055e-015 1.19271e-015 -3.97569e-015 3.18055e-015 -2.78299e-015 6.16232e-015 3.18055e-015 2.38542e-015 -3.18055e-015 -3.18055e-015 -1.98785e-015 2.78299e-015 -3.18055e-015 1.19271e-015 -3.97569e-015 3.18055e-015 -2.78299e-015 6.16232e-015 -3.18055e-015 -1.98785e-015 2.78299e-015 -3.18055e-015 1.19271e-015 -3.97569e-015 3.18055e-015 -2.78299e-015 6.16232e-015 5.71568 7.3299 8.71709 4.60349 69.2281 -5.98496 2.21674 11.5834 2.71433 -9.99132 -14.1957 1.45959 53.2908 22.8684 -83.9361 14.1553 40.2395 13.6285 
8.2709 6.75988 10.2383 -90 0 -0 2.33989 2.69992 -7.21821 5.00859 5.08165 -14.5624 5.00858 5.08165 -14.5625 24.168 -1.8273 0.817136 8.50812 3.51972 0.0339879 -3.89546 -12.97 24.6317 -62.2641 14.5104 -37.6057 -16.747 -0.20497 21.6384 5.97399e-007 1.97681e-007 1.42447e-006 -1.7522e-006 -3.27235e-006 2.91248e-007 -8.80428e-007 -1.017e-006 6.28926e-007 -1.95885e-006 -3.12071e-006 1.44827e-006 7.95139e-016 0 1.59028e-015 -1.75221e-006 -3.27235e-006 2.91248e-007 -8.80428e-007 -1.017e-006 6.28926e-007 -1.95885e-006 -3.12071e-006 1.44827e-006 -1.75221e-006 -3.27235e-006 2.91248e-007 -8.80428e-007 -1.017e-006 6.28926e-007 -1.95885e-006 -3.12071e-006 1.44827e-006 7.95139e-016 0 1.59028e-015 -1.75221e-006 -3.27235e-006 2.91248e-007 -8.80428e-007 -1.017e-006 6.28926e-007 -1.95885e-006 -3.12071e-006 1.44827e-006 -1.75221e-006 -3.27235e-006 2.91248e-007 -8.80428e-007 -1.017e-006 6.28926e-007 -1.95885e-006 -3.12071e-006 1.44827e-006 -98.1302 -70.7343 -149.446 -15.1148 -11.6561 -20.71 30.357 29.5545 -20.8257 -22.6396 51.289 -18.4011 1.39911e-006 -1.15922e-007 2.99173e-006 2.02075e-006 1.76212e-007 2.48655e-006 -3.18055e-015 -4.77083e-015 3.57812e-015 -3.18055e-015 7.95139e-016 -4.77083e-015 1.39911e-006 -1.15922e-007 2.99173e-006 2.02075e-006 1.76212e-007 2.48655e-006 -6.36111e-015 -4.77083e-015 -2.38542e-015 1.39911e-006 -1.15922e-007 2.99173e-006 2.02075e-006 1.76212e-007 2.48655e-006 -6.36111e-015 -4.77083e-015 -2.38542e-015 -3.18055e-015 7.95139e-016 -4.77083e-015 1.39911e-006 -1.15922e-007 2.99173e-006 2.02075e-006 1.76212e-007 2.48655e-006 -6.36111e-015 -4.77083e-015 -2.38542e-015 1.39911e-006 -1.15922e-007 2.99173e-006 2.02075e-006 1.76212e-007 2.48655e-006 -6.36111e-015 -4.77083e-015 -2.38542e-015 5.7284 6.70469 8.78339 5.00631 69.9253 -6.34131 2.21449 11.6462 2.7144 -10.055 -14.4932 1.28559 53.2743 22.8648 -83.9424 13.953 40.3223 13.4936 
8.2775 6.76007 9.79075 -90 0 -0 2.30662 2.99439 -7.07593 4.97469 5.67872 -14.2934 4.9747 5.67871 -14.2934 24.0527 -1.8287 0.813443 8.44392 3.60694 0.0272687 -2.8768 -13.98 24.6233 -62.5641 14.7278 -37.9747 -17.1065 -0.139718 21.6456 -3.51853e-007 -3.03109e-006 1.97862e-006 5.56597e-015 -6.36111e-015 -4.77083e-015 1.59028e-015 1.27222e-014 -6.36111e-015 1.59028e-015 0 -3.18055e-015 7.95139e-016 -6.36111e-015 -1.59028e-015 -2.38542e-015 3.18055e-015 1.59028e-015 6.36111e-015 -3.18055e-015 -1.59028e-015 1.59028e-015 0 -1.59028e-015 -2.38542e-015 3.18055e-015 1.59028e-015 6.36111e-015 -3.18055e-015 -1.59028e-015 1.59028e-015 0 -1.59028e-015 7.95139e-016 -6.36111e-015 -1.59028e-015 -2.38542e-015 3.18055e-015 1.59028e-015 6.36111e-015 -3.18055e-015 -1.59028e-015 1.59028e-015 0 -1.59028e-015 -2.38542e-015 3.18055e-015 1.59028e-015 6.36111e-015 -3.18055e-015 -1.59028e-015 1.59028e-015 0 -1.59028e-015 -99.5426 -69.908 -151.68 -15.1148 -11.6561 -20.71 30.1145 29.0543 -20.8482 -21.0857 51.9219 -19.3769 1.19242e-006 9.0623e-007 3.00763e-006 -7.16749e-007 3.89599e-006 2.57376e-006 -1.24421e-006 -5.80298e-007 1.01027e-006 8.68988e-032 -1.19271e-015 4.17448e-015 1.19242e-006 9.0623e-007 3.00763e-006 -7.16749e-007 3.89599e-006 2.57376e-006 -1.24421e-006 -5.80298e-007 1.01027e-006 1.19242e-006 9.0623e-007 3.00763e-006 -7.16749e-007 3.89599e-006 2.57376e-006 -1.24421e-006 -5.80298e-007 1.01027e-006 8.68988e-032 -1.19271e-015 4.17448e-015 1.19242e-006 9.0623e-007 3.00763e-006 -7.16749e-007 3.89599e-006 2.57376e-006 -1.24421e-006 -5.80298e-007 1.01027e-006 1.19242e-006 9.0623e-007 3.00763e-006 -7.16749e-007 3.89599e-006 2.57376e-006 -1.24421e-006 -5.80298e-007 1.01027e-006 5.74151 6.07888 8.84996 5.43693 70.6216 -6.72527 2.21219 11.7094 2.71446 -10.1194 -14.7904 1.11105 53.2574 22.8612 -83.9488 13.7505 40.4056 13.359 
8.2838 6.76024 9.34303 -90 0 -0 2.272 3.28859 -6.93345 4.93676 6.27546 -14.0239 4.93679 6.27547 -14.0239 23.9374 -1.83024 0.809817 8.37972 3.69417 0.0206791 -1.85468 -14.9889 24.6335 -62.863 14.947 -38.3428 -17.4657 -0.072859 21.653 2.38542e-015 3.18055e-015 -3.18055e-015 -1.59028e-015 1.27222e-014 -3.18055e-015 -8.43238e-007 -1.02961e-006 6.3397e-007 -3.98972e-007 -5.49437e-006 -4.38248e-007 -1.59028e-015 1.27222e-014 -3.18055e-015 -7.95139e-016 6.36111e-015 1.59028e-015 -8.43238e-007 -1.02961e-006 6.3397e-007 -3.98972e-007 -5.49437e-006 -4.38248e-007 -7.95139e-016 6.36111e-015 1.59028e-015 -8.43238e-007 -1.02961e-006 6.3397e-007 -3.98972e-007 -5.49437e-006 -4.38248e-007 -1.59028e-015 1.27222e-014 -3.18055e-015 -7.95139e-016 6.36111e-015 1.59028e-015 -8.43238e-007 -1.02961e-006 6.3397e-007 -3.98972e-007 -5.49437e-006 -4.38248e-007 -7.95139e-016 6.36111e-015 1.59028e-015 -8.43238e-007 -1.02961e-006 6.3397e-007 -3.98972e-007 -5.49437e-006 -4.38248e-007 -100.809 -69.065 -153.77 -15.1148 -11.6561 -20.71 29.8644 28.561 -20.8695 -19.4935 52.5374 -20.3935 -7.75692e-007 3.47295e-007 -3.50015e-006 -7.75692e-007 3.47295e-007 -3.50015e-006 3.18055e-015 -3.97569e-015 4.96962e-015 -3.18055e-015 -3.18055e-015 -3.97569e-015 -7.75692e-007 3.47295e-007 -3.50015e-006 -7.75692e-007 3.47295e-007 -3.50015e-006 6.36111e-015 -5.56597e-015 4.77083e-015 -7.75692e-007 3.47295e-007 -3.50015e-006 -7.75692e-007 3.47295e-007 -3.50015e-006 6.36111e-015 -5.56597e-015 4.77083e-015 -3.18055e-015 -3.18055e-015 -3.97569e-015 -7.75692e-007 3.47295e-007 -3.50015e-006 -7.75692e-007 3.47295e-007 -3.50015e-006 6.36111e-015 -5.56597e-015 4.77083e-015 -7.75692e-007 3.47295e-007 -3.50015e-006 -7.75692e-007 3.47295e-007 -3.50015e-006 6.36111e-015 -5.56597e-015 4.77083e-015 5.75514 5.45262 8.91679 5.89832 71.3167 -7.1399 2.20988 11.7732 2.71452 -10.1848 -15.0876 0.935938 53.2405 22.8576 -83.9551 13.5478 40.4891 13.2247 
